# xmcd
# 
# Track frame offsets:
#     183
#     13870
#     21925
#     32210
#     43338
#     53780
#     64658
#     78188
#     87833
#     100868
#     112263
#     121218
#     131763
#     145115
#     155095
#     168215
#     183040
#     193500
# 
# Disc length: 2702
# 
# Revision: 1
# Processed by: cddbd v1.5.2PL0 Copyright (c) Steve Scherf et al.
# Submitted via: fre:ac v1.0.27
# 
DISCID=f20a8c12
DTITLE=Faron Young - Life Is A Picture
DYEAR=0
DGENRE=Country
TTITLE0=The Tips of My Fingers
TTITLE1=Tennessee Border
TTITLE2=Nothing Left To Lose
TTITLE3=Life is a Picture
TTITLE4=King of The Road
TTITLE5=Memphis Tennessee
TTITLE6=Almost Persuaded
TTITLE7=Live Fast, Love Hard, Die Young
TTITLE8=Apartment No. 9
TTITLE9=Cryin' Time
TTITLE10=Together Again
TTITLE11=As Far As I'm Concerned
TTITLE12=Moments To Remember
TTITLE13=(Remember Me) I'm The One Who Loves You
TTITLE14=There Goes My Everything
TTITLE15=Saginaw, Michigan
TTITLE16=Yonder Comes A Sucker
TTITLE17=Some Of Your Memories
EXTD=
EXTT0=
EXTT1=
EXTT2=
EXTT3=
EXTT4=
EXTT5=
EXTT6=
EXTT7=
EXTT8=
EXTT9=
EXTT10=
EXTT11=
EXTT12=
EXTT13=
EXTT14=
EXTT15=
EXTT16=
EXTT17=
PLAYORDER=
